<svg width="18" height="18" viewBox="0 0 18 18" fill="none" xmlns="http://www.w3.org/2000/svg">
<path fill-rule="evenodd" clip-rule="evenodd" d="M8 1.77778C4.56356 1.77778 1.77778 4.56356 1.77778 8C1.77778 11.4364 4.56356 14.2222 8 14.2222C11.4364 14.2222 14.2222 11.4364 14.2222 8C14.2222 4.56356 11.4364 1.77778 8 1.77778ZM0 8C0 3.58172 3.58172 0 8 0C12.4183 0 16 3.58172 16 8C16 12.4183 12.4183 16 8 16C3.58172 16 0 12.4183 0 8Z" fill="white"/>
<path fill-rule="evenodd" clip-rule="evenodd" d="M11.9999 12.9999C12.3689 12.6309 12.9672 12.6309 13.3362 12.9999L16.7232 16.3869C17.0922 16.7559 17.0922 17.3541 16.7232 17.7231C16.3542 18.0921 15.7559 18.0921 15.3869 17.7231L11.9999 14.3362C11.6309 13.9672 11.6309 13.3689 11.9999 12.9999Z" fill="white"/>
</svg>
