<svg width="27" height="26" viewBox="0 0 27 26" fill="none" xmlns="http://www.w3.org/2000/svg">
<g clip-path="url(#clip0_110_3356)">
<path fill-rule="evenodd" clip-rule="evenodd" d="M11.8713 0.0659104C9.42764 0.412418 7.36608 1.28136 5.42251 2.78404C4.41548 3.56258 3.20796 4.91405 2.43543 6.12712C1.85094 7.04486 1.20963 8.53029 0.917683 9.64237C0.58289 10.9177 0.524902 11.4144 0.524902 13.0075C0.524902 14.6006 0.58289 15.0973 0.917683 16.3727C1.71394 19.4058 3.67409 22.1153 6.37123 23.911C7.79958 24.8619 9.54387 25.5456 11.389 25.8777C11.9911 25.9861 12.2346 26 13.5249 26C14.805 26 15.0613 25.9856 15.6432 25.8807C18.453 25.3742 20.784 24.176 22.7153 22.2456C24.6933 20.2685 25.8965 17.9507 26.4025 15.1422C26.511 14.5404 26.5249 14.2971 26.5249 13.0075C26.5249 11.7281 26.5104 11.472 26.4055 10.8904C26.153 9.49175 25.8309 8.49906 25.2287 7.26503C24.5841 5.94384 23.8151 4.87145 22.7408 3.79546C20.7956 1.84714 18.4678 0.643971 15.6697 0.140378C14.8524 -0.0067035 12.6834 -0.049204 11.8713 0.0659104Z" fill="#4DCD38"/>
<path d="M11.8187 8.125C12.7909 9.55243 15.1898 13.2349 15.327 13.4812C15.2601 13.1931 15.2866 8.125 15.2866 8.125H19.2124V17.875L15.2589 17.8669L11.8603 12.8486V17.875H9.84884H7.8374V8.125H11.8187Z" fill="#F5F5F5"/>
</g>
<defs>
<clipPath id="clip0_110_3356">
<rect width="26" height="26" fill="white" transform="translate(0.524902)"/>
</clipPath>
</defs>
</svg>
